PathFileType	4	(X/Y/Z)	15_2_66_p1_0-450.trc
DataRate	CameraRate	NumFrames	NumMarkers	Units	OrigDataRate	OrigDataStartFrame	OrigNumFrames
59.0	59.0	5	27	m	59.0	56	451
Frame#	Time	RHip			RKnee			RAnkle			RBigToe			RSmallToe			RHeel			LHip			LKnee			LAnkle			LBigToe			LSmallToe			LHeel			Neck			Head			Nose			RShoulder			RElbow			RWrist			RThumb			RIndex			RPinky			LShoulder			LElbow			LWrist			LThumb			LIndex			LPinky			
		X1	Y1	Z1	X2	Y2	Z2	X3	Y3	Z3	X4	Y4	Z4	X5	Y5	Z5	X6	Y6	Z6	X7	Y7	Z7	X8	Y8	Z8	X9	Y9	Z9	X10	Y10	Z10	X11	Y11	Z11	X12	Y12	Z12	X13	Y13	Z13	X14	Y14	Z14	X15	Y15	Z15	X16	Y16	Z16	X17	Y17	Z17	X18	Y18	Z18	X19	Y19	Z19	X20	Y20	Z20	X21	Y21	Z21	X22	Y22	Z22	X23	Y23	Z23	X24	Y24	Z24	X25	Y25	Z25	X26	Y26	Z26	X27	Y27	Z27	
56	0.9491525423728814	0.24017851805043663	0.3362202885720165	1.085201017053777	0.23100557675039754	0.2637225006294983	1.504963862038914	0.23758953922120601	0.21641004095059677	1.9625101809940853	0.23654830547596595	-0.0022616203027421874	1.8781741427145164	0.2954247085394942	0.04666511500263483	1.9031857490662645	0.2382846111199347	0.2521185144032008	2.027213987604455	0.062333745797777444	0.3029943013481995	1.083436541640061	0.07411998023738707	0.29076685319676143	1.5323937313728944	0.07810895950157343	0.2006083741709047	1.959254766693418	0.08889427701364515	0.011989772701666549	1.8875383963332866	0.0502346129523239	0.045701351753635565	1.9020432018237425	0.08293649667096024	0.2189104658659837	2.0181848573188135	0.11228103756959826	0.4311955936448216	0.5228310067371597	0.08824931082214314	0.4067898647993408	0.26913097372908085	0.10087831664701546	0.32914811779231806	0.3829804840111267	0.26294837772402224	0.42602861621081195	0.6042708172683388	0.32653550802615383	0.4037234210047962	0.8974392072885068	0.37358541693623337	0.2530824112023534	1.0930216485971036	0.3691017346216874	0.17064832434814087	1.1881314714770512	0.39691974467604907	0.20527216485255914	1.2337938054581175	0.4146091567025861	0.2370502891938356	1.2384179957350472	-0.04145607591403847	0.3985112709069103	0.6344359507433958	-0.03645802708132899	0.32589284489492854	0.89152489210482	0.01564220667173888	0.187246560737393	1.094938389725878	0.043474287326216374	0.13256499077420733	1.1759826772216566	0.02146498762095263	0.13598093978912174	1.2028692571910526	-0.020247144966149325	0.181989886270619	1.2176700180952926
57	0.9661016949152542	0.23941192191723995	0.3364176028987439	1.0814366515779807	0.22726471596633493	0.2762020564939232	1.5190557806345844	0.23760840098073005	0.21636753226632932	1.9623720013425683	0.2324784137508945	-0.0118081589281955	1.869669927823691	0.2936790827722941	0.024639460571042347	1.882243067916136	0.2383288453371479	0.2520746867338044	2.0273238760401755	0.06249910897003453	0.3162536600947234	1.090794245919363	0.07412229491420945	0.29098706637384625	1.5322837196253565	0.07420427906893558	0.21312371770053767	1.9711191014701257	0.08889065764353647	0.011850040799960748	1.8876109566477617	0.050716644427361415	0.04379373285119984	1.905713628310629	0.08249264503277282	0.22063226122050147	2.014559904449234	0.11230427937419366	0.43107390676815666	0.5228349917346373	0.0883645162999395	0.40653287059640353	0.2690208520000368	0.10776768559675255	0.3195504500563865	0.3765376484530118	0.26306309752844975	0.42616699422623666	0.604143706014915	0.32903340818909155	0.39091002846925893	0.8911424055656391	0.3730289343695967	0.25344263079607265	1.0892041447165672	0.36715732896400155	0.18300795397164402	1.1963198770807029	0.4016664491984225	0.20840842308829377	1.231566488557655	0.4192056641363448	0.23890728076671258	1.238867743367928	-0.04485045395944828	0.39033489093574564	0.6242921581365068	-0.03715672671318654	0.3256091699115164	0.8874134941967378	0.012061183660483484	0.17782818223329097	1.0897074006983631	0.039380399272398676	0.14259898575712243	1.1860083242504806	0.021267908294273535	0.1363973543230828	1.2032936894575477	-0.03915608093153047	0.181381228639118	1.2191282871469695
58	0.9830508474576272	0.239342132795663	0.3362675940448399	1.0814084520526772	0.23186565923946872	0.2867895591987828	1.5266441265883084	0.23758862546867113	0.21632297622592328	1.9626117203116173	0.2325114970873922	-0.011404668684808555	1.8692743343139377	0.2910849691540571	0.036838992492232006	1.893748610954606	0.23835405363401396	0.25222683336808205	2.027212336151927	0.062318670503260044	0.3030756963783551	1.0838000412983355	0.07400061566464002	0.29111018927745486	1.5323843861464908	0.0741801563713478	0.2131458987740479	1.9713298225998177	0.0888469354937179	0.012141796180350323	1.8879342893918938	0.05016366749151964	0.0458036065605436	1.9024510224504465	0.08346237298977054	0.222156087089429	2.0095859670245995	0.11225854363237213	0.43092277428455966	0.5227319302717556	0.08873622901587452	0.40655531008562296	0.26880097799975095	0.10826702047097023	0.3193208362206153	0.37963091950961525	0.2629012761634604	0.4259531375591743	0.6040099908858126	0.3266433618766009	0.40398452773851207	0.897432909486802	0.3736458906191198	0.25518337710174355	1.0855407649336513	0.3675139112199207	0.1846248196134514	1.1926832254026147	0.40520372693374307	0.2099753337493726	1.231996654969715	0.4103453183021698	0.23768789995751372	1.2336761620061265	-0.04503160812007798	0.3901230962976683	0.6242539547932813	-0.037184647115368445	0.32597139019842597	0.8873716843567286	0.012116856643329253	0.177842997453175	1.0896007985445602	0.039364230255900634	0.14239020668545974	1.1859992207476038	0.021240437547619694	0.13643031041836465	1.203300058188428	-0.03185843179997564	0.20339818448767583	1.2330739521395258
59	1.0	0.23926951746378733	0.33647135413318113	1.0816762891548162	0.22915401345704553	0.26260201093250446	1.5044278721996993	0.237591764648501	0.21622939665070345	1.9624979035190515	0.23250759385828448	-0.011613604795352301	1.8695656868367758	0.2933097826297128	0.03289831634253226	1.8901059370409752	0.23829571326773705	0.25203764420623187	2.027081088120163	0.062245890325128846	0.30319516279877573	1.0834764259812	0.07316040466494086	0.2895454804319065	1.5312018674818373	0.07420200588963421	0.21319474245759565	1.9712307980403985	0.09356868846033231	0.021814451609988413	1.9020029258941995	0.05020894258071745	0.04582626191417977	1.9025366120079557	0.08345561949683648	0.2221247647382821	2.0097267608326534	0.11224758725436498	0.43085731932426063	0.5227394242374709	0.08879897479586167	0.40648184772073803	0.2688100523655489	0.10790744006953194	0.3195909189303351	0.37649931850627055	0.26292032173729235	0.4260109842324374	0.6040361587130332	0.3309898268523363	0.4054512456712645	0.8979088773728185	0.37320566704579766	0.2568082476441174	1.0821864221734516	0.3612152170356174	0.17708909676248494	1.1748400078784775	0.3943236194760087	0.19960966561522897	1.2201579546924222	0.4098467910858312	0.2364233049793054	1.2376968461977678	-0.045337292333381726	0.390741274448408	0.6205982844955006	-0.0377099784833127	0.3271140633893466	0.8837648093330072	0.015800294336789592	0.18710514677392429	1.0944577660544499	0.042805931316969775	0.13306159375420987	1.1716240890913667	0.02137134288868788	0.1362327437314165	1.203253077506937	-0.022237899333425747	0.20597860534686038	1.2305429376834056
60	1.0169491525423728	0.24075936951347499	0.33506555508206065	1.0890724535866856	0.23580790403114577	0.2733660824061005	1.520874202877004	0.2376116418482457	0.21613919967554224	1.962656668468118	0.23675202599591638	-0.002387775125836056	1.8785982352838935	0.29819662680950343	0.03420939952633204	1.891412088716264	0.23882195823113325	0.2498703550615676	2.0316067056673877	0.06356084684805315	0.3017952340128647	1.0917623292739809	0.07441366632982573	0.2906271855550353	1.5367137186650728	0.0742121439640604	0.21317407518393736	1.9710522894995859	0.09351280779397197	0.021905020262329742	1.9019692803138082	0.05014914883571597	0.045881153676145627	1.9026798154578715	0.08781610152053056	0.22422858573158216	2.0112450046475465	0.11221169240686842	0.43069645236174275	0.522753220476463	0.0925772792148011	0.4083442863716122	0.269059501202296	0.10526431038643949	0.33112013867444035	0.3832488282280891	0.26288414823963374	0.4260770836443016	0.6038643220860065	0.3265936444085249	0.40410795083423345	0.8973631819460013	0.3677198841708807	0.24639940911660813	1.076338019798175	0.3548790956902554	0.17767991755388807	1.1665785711952334	0.38619602395788716	0.2187329562739011	1.2258188017016696	0.3832692029335056	0.2356709185388449	1.2271388046379277	-0.04511411955649272	0.3893618198328614	0.6241503204155386	-0.04150007273308545	0.3240114368031638	0.8865720665104887	0.01981321259390629	0.18867355438484507	1.0949793905229586	0.0429747017154018	0.13284422976735716	1.1712301114191477	0.02206206879593085	0.13755186328305521	1.1991844040394084	-0.0013596486395539855	0.17577534473921969	1.2049621801281643
